<?xml version="1.0" encoding="UTF-8" standalone="no"?>
<!DOCTYPE svg PUBLIC "-//W3C//DTD SVG 1.1//EN"
 "http://www.w3.org/Graphics/SVG/1.1/DTD/svg11.dtd">
<!-- Generated by graphviz version 2.38.0 (20140413.2041)
 -->
<!-- Title: G Pages: 1 -->
<svg width="612pt" height="517pt"
 viewBox="0.00 0.00 612.00 517.00" xmlns="http://www.w3.org/2000/svg" xmlns:xlink="http://www.w3.org/1999/xlink">
<g id="graph0" class="graph" transform="scale(1 1) rotate(0) translate(4 513)">
<title>G</title>
<polygon fill="white" stroke="none" points="-4,4 -4,-513 608,-513 608,4 -4,4"/>
<!-- 01 -->
<g id="node1" class="node"><title>01</title>
<ellipse fill="black" stroke="black" cx="0" cy="-472.5" rx="0" ry="0"/>
</g>
<!-- 02 -->
<g id="node2" class="node"><title>02</title>
<ellipse fill="black" stroke="black" cx="0" cy="-363.5" rx="0" ry="0"/>
</g>
<!-- 01&#45;&gt;02 -->
<g id="edge1" class="edge"><title>01&#45;&gt;02</title>
<path fill="none" stroke="black" d="M0,-472.421C0,-469.172 0,-366.776 0,-363.577"/>
</g>
<!-- 03 -->
<g id="node3" class="node"><title>03</title>
<ellipse fill="black" stroke="black" cx="0" cy="-254.5" rx="0" ry="0"/>
</g>
<!-- 02&#45;&gt;03 -->
<g id="edge2" class="edge"><title>02&#45;&gt;03</title>
<path fill="none" stroke="black" d="M0,-363.421C0,-360.172 0,-257.776 0,-254.577"/>
</g>
<!-- neg -->
<g id="node11" class="node"><title>neg</title>
<polygon fill="none" stroke="black" points="36,-327.5 36,-399.5 108,-399.5 108,-327.5 36,-327.5"/>
<text text-anchor="middle" x="72" y="-377.8" font-family="Times,serif" font-size="14.00">neg</text>
<polyline fill="none" stroke="black" points="36,-363.5 108,-363.5 "/>
<text text-anchor="middle" x="72" y="-341.8" font-family="Times,serif" font-size="14.00">out = &#45;in</text>
</g>
<!-- 02&#45;&gt;neg -->
<g id="edge10" class="edge"><title>02&#45;&gt;neg</title>
<path fill="none" stroke="black" d="M0.0521851,-363C0.0521851,-363 25.5979,-363 25.5979,-363"/>
<polygon fill="black" stroke="black" points="25.5979,-366.5 35.5979,-363 25.5979,-359.5 25.5979,-366.5"/>
</g>
<!-- 04 -->
<g id="node4" class="node"><title>04</title>
<ellipse fill="black" stroke="black" cx="0" cy="-145.5" rx="0" ry="0"/>
</g>
<!-- 03&#45;&gt;04 -->
<g id="edge3" class="edge"><title>03&#45;&gt;04</title>
<path fill="none" stroke="black" d="M0,-254.421C0,-251.172 0,-148.776 0,-145.577"/>
</g>
<!-- mod -->
<g id="node10" class="node"><title>mod</title>
<polygon fill="none" stroke="black" points="35.5,-218.5 35.5,-290.5 200.5,-290.5 200.5,-218.5 35.5,-218.5"/>
<text text-anchor="middle" x="118" y="-268.8" font-family="Times,serif" font-size="14.00">mod</text>
<polyline fill="none" stroke="black" points="35.5,-254.5 200.5,-254.5 "/>
<text text-anchor="middle" x="118" y="-232.8" font-family="Times,serif" font-size="14.00">out = in1 &#45; (in1 / in2) * in2</text>
</g>
<!-- 03&#45;&gt;mod -->
<g id="edge11" class="edge"><title>03&#45;&gt;mod</title>
<path fill="none" stroke="black" d="M0.0855255,-254C0.0855255,-254 25.4589,-254 25.4589,-254"/>
<polygon fill="black" stroke="black" points="25.4589,-257.5 35.4589,-254 25.4588,-250.5 25.4589,-257.5"/>
</g>
<!-- pow -->
<g id="node12" class="node"><title>pow</title>
<polygon fill="none" stroke="black" points="36,-109.5 36,-181.5 134,-181.5 134,-109.5 36,-109.5"/>
<text text-anchor="middle" x="85" y="-159.8" font-family="Times,serif" font-size="14.00">pow</text>
<polyline fill="none" stroke="black" points="36,-145.5 134,-145.5 "/>
<text text-anchor="middle" x="85" y="-123.8" font-family="Times,serif" font-size="14.00">out = in1 ^ in2</text>
</g>
<!-- 04&#45;&gt;pow -->
<g id="edge12" class="edge"><title>04&#45;&gt;pow</title>
<path fill="none" stroke="black" d="M0.0616074,-145C0.0616074,-145 25.6782,-145 25.6782,-145"/>
<polygon fill="black" stroke="black" points="25.6782,-148.5 35.6782,-145 25.6782,-141.5 25.6782,-148.5"/>
</g>
<!-- parser -->
<g id="node5" class="node"><title>parser</title>
<polygon fill="lightgrey" stroke="black" points="532,-436.5 532,-508.5 604,-508.5 604,-436.5 532,-436.5"/>
<text text-anchor="middle" x="568" y="-468.8" font-family="Times,serif" font-size="14.00">parser</text>
</g>
<!-- parser&#45;&gt;01 -->
<g id="edge8" class="edge"><title>parser&#45;&gt;01</title>
<path fill="none" stroke="black" d="M531.605,-491C406.241,-491 0,-491 0,-491 0,-491 0,-473.638 0,-472.553"/>
</g>
<!-- 11 -->
<g id="node13" class="node"><title>11</title>
<ellipse fill="black" stroke="black" cx="514" cy="-472.5" rx="0" ry="0"/>
</g>
<!-- parser&#45;&gt;11 -->
<g id="edge9" class="edge"><title>parser&#45;&gt;11</title>
<path fill="none" stroke="black" d="M531.981,-472C522.695,-472 515.017,-472 514.093,-472"/>
</g>
<!-- add -->
<g id="node6" class="node"><title>add</title>
<polygon fill="none" stroke="black" points="378,-327.5 378,-399.5 478,-399.5 478,-327.5 378,-327.5"/>
<text text-anchor="middle" x="428" y="-377.8" font-family="Times,serif" font-size="14.00">add</text>
<polyline fill="none" stroke="black" points="378,-363.5 478,-363.5 "/>
<text text-anchor="middle" x="428" y="-341.8" font-family="Times,serif" font-size="14.00">out = in1 + in2</text>
</g>
<!-- 12 -->
<g id="node14" class="node"><title>12</title>
<ellipse fill="black" stroke="black" cx="514" cy="-363.5" rx="0" ry="0"/>
</g>
<!-- add&#45;&gt;12 -->
<g id="edge13" class="edge"><title>add&#45;&gt;12</title>
<path fill="none" stroke="black" d="M488.027,-363C488.027,-363 513.951,-363 513.951,-363"/>
<polygon fill="black" stroke="black" points="488.027,-359.5 478.027,-363 488.027,-366.5 488.027,-359.5"/>
</g>
<!-- sub -->
<g id="node7" class="node"><title>sub</title>
<polygon fill="none" stroke="black" points="382,-109.5 382,-181.5 478,-181.5 478,-109.5 382,-109.5"/>
<text text-anchor="middle" x="430" y="-159.8" font-family="Times,serif" font-size="14.00">sub</text>
<polyline fill="none" stroke="black" points="382,-145.5 478,-145.5 "/>
<text text-anchor="middle" x="430" y="-123.8" font-family="Times,serif" font-size="14.00">out = in1 &#45; in2</text>
</g>
<!-- sub&#45;&gt;mod -->
<g id="edge18" class="edge"><title>sub&#45;&gt;mod</title>
<path fill="none" stroke="black" stroke-dasharray="5,2" d="M371.774,-133C371.774,-133 178.333,-133 178.333,-133 178.333,-133 178.333,-182.56 178.333,-218.375"/>
<polygon fill="black" stroke="black" points="371.774,-136.5 381.774,-133 371.774,-129.5 371.774,-136.5"/>
</g>
<!-- 14 -->
<g id="node16" class="node"><title>14</title>
<ellipse fill="black" stroke="black" cx="514" cy="-145.5" rx="0" ry="0"/>
</g>
<!-- sub&#45;&gt;14 -->
<g id="edge15" class="edge"><title>sub&#45;&gt;14</title>
<path fill="none" stroke="black" d="M488.376,-145C488.376,-145 513.951,-145 513.951,-145"/>
<polygon fill="black" stroke="black" points="488.376,-141.5 478.376,-145 488.376,-148.5 488.376,-141.5"/>
</g>
<!-- mult -->
<g id="node8" class="node"><title>mult</title>
<polygon fill="none" stroke="black" points="380,-218.5 380,-290.5 478,-290.5 478,-218.5 380,-218.5"/>
<text text-anchor="middle" x="429" y="-268.8" font-family="Times,serif" font-size="14.00">mult</text>
<polyline fill="none" stroke="black" points="380,-254.5 478,-254.5 "/>
<text text-anchor="middle" x="429" y="-232.8" font-family="Times,serif" font-size="14.00">out = in1 * in2</text>
</g>
<!-- mult&#45;&gt;mod -->
<g id="edge19" class="edge"><title>mult&#45;&gt;mod</title>
<path fill="none" stroke="black" stroke-dasharray="5,2" d="M369.721,-254C369.721,-254 200.667,-254 200.667,-254"/>
<polygon fill="black" stroke="black" points="369.721,-257.5 379.721,-254 369.721,-250.5 369.721,-257.5"/>
</g>
<!-- mult&#45;&gt;neg -->
<g id="edge17" class="edge"><title>mult&#45;&gt;neg</title>
<path fill="none" stroke="black" stroke-dasharray="5,2" d="M369.567,-272C369.567,-272 259.667,-272 259.667,-272 259.667,-272 259.667,-363 259.667,-363 259.667,-363 162.718,-363 108.184,-363"/>
<polygon fill="black" stroke="black" points="369.567,-275.5 379.567,-272 369.567,-268.5 369.567,-275.5"/>
</g>
<!-- mult&#45;&gt;pow -->
<g id="edge21" class="edge"><title>mult&#45;&gt;pow</title>
<path fill="none" stroke="black" stroke-dasharray="5,2" d="M369.717,-236C369.717,-236 318.833,-236 318.833,-236 318.833,-236 318.833,-157 318.833,-157 318.833,-157 202.587,-157 134.019,-157"/>
<polygon fill="black" stroke="black" points="369.717,-239.5 379.717,-236 369.717,-232.5 369.717,-239.5"/>
</g>
<!-- 13 -->
<g id="node15" class="node"><title>13</title>
<ellipse fill="black" stroke="black" cx="514" cy="-254.5" rx="0" ry="0"/>
</g>
<!-- mult&#45;&gt;13 -->
<g id="edge14" class="edge"><title>mult&#45;&gt;13</title>
<path fill="none" stroke="black" d="M488.445,-254C488.445,-254 513.951,-254 513.951,-254"/>
<polygon fill="black" stroke="black" points="488.445,-250.5 478.445,-254 488.445,-257.5 488.445,-250.5"/>
</g>
<!-- div -->
<g id="node9" class="node"><title>div</title>
<polygon fill="none" stroke="black" points="383.5,-0.5 383.5,-72.5 478.5,-72.5 478.5,-0.5 383.5,-0.5"/>
<text text-anchor="middle" x="431" y="-50.8" font-family="Times,serif" font-size="14.00">div</text>
<polyline fill="none" stroke="black" points="383.5,-36.5 478.5,-36.5 "/>
<text text-anchor="middle" x="431" y="-14.8" font-family="Times,serif" font-size="14.00">out = in1 / in2</text>
</g>
<!-- div&#45;&gt;mod -->
<g id="edge20" class="edge"><title>div&#45;&gt;mod</title>
<path fill="none" stroke="black" stroke-dasharray="5,2" d="M373.441,-36C373.441,-36 156.167,-36 156.167,-36 156.167,-36 156.167,-156.359 156.167,-218.419"/>
<polygon fill="black" stroke="black" points="373.441,-39.5001 383.441,-36 373.441,-32.5001 373.441,-39.5001"/>
</g>
<!-- 15 -->
<g id="node17" class="node"><title>15</title>
<ellipse fill="black" stroke="black" cx="514" cy="-36.5" rx="0" ry="0"/>
</g>
<!-- div&#45;&gt;15 -->
<g id="edge16" class="edge"><title>div&#45;&gt;15</title>
<path fill="none" stroke="black" d="M488.801,-36C488.801,-36 513.951,-36 513.951,-36"/>
<polygon fill="black" stroke="black" points="488.801,-32.5001 478.801,-36 488.8,-39.5001 488.801,-32.5001"/>
</g>
<!-- 11&#45;&gt;12 -->
<g id="edge4" class="edge"><title>11&#45;&gt;12</title>
<path fill="none" stroke="black" d="M514,-472.421C514,-469.172 514,-366.776 514,-363.577"/>
</g>
<!-- 12&#45;&gt;13 -->
<g id="edge5" class="edge"><title>12&#45;&gt;13</title>
<path fill="none" stroke="black" d="M514,-363.421C514,-360.172 514,-257.776 514,-254.577"/>
</g>
<!-- 13&#45;&gt;14 -->
<g id="edge6" class="edge"><title>13&#45;&gt;14</title>
<path fill="none" stroke="black" d="M514,-254.421C514,-251.172 514,-148.776 514,-145.577"/>
</g>
<!-- 14&#45;&gt;15 -->
<g id="edge7" class="edge"><title>14&#45;&gt;15</title>
<path fill="none" stroke="black" d="M514,-145.421C514,-142.172 514,-39.7757 514,-36.5766"/>
</g>
</g>
</svg>
